<?xml version="1.0" encoding="utf-8"?>
<!-- Generator: Adobe Illustrator 22.0.1, SVG Export Plug-In . SVG Version: 6.00 Build 0)  -->
<svg version="1.1" id="Layer_1" xmlns="http://www.w3.org/2000/svg" xmlns:xlink="http://www.w3.org/1999/xlink" x="0px" y="0px"
	 viewBox="0 0 1400 500" style="enable-background:new 0 0 1400 500;" xml:space="preserve">
<style type="text/css">
	.st0{fill:#3F3F3F;}
	.st1{fill:#175E90;}
	.st2{font-family:'Arial-BoldMT';}
	.st3{font-size:40px;}
	.st4{font-family:'ArialMT';}
	.st5{font-size:21px;}
</style>
<path d="M362.7,66.7V0H20C12.2,7.8,7.8,12.2,0,20v460c7.8,7.8,12.2,12.2,20,20h1360c7.8-7.8,12.2-12.2,20-20V66.7H362.7z"/>
<text transform="matrix(1 0 0 1 31.7503 62.4868)" class="st1 st2 st3">Contact Us</text>
<text transform="matrix(1 0 0 1 33.3662 132.2936)"><tspan x="0" y="0" class="st1 st4 st5">We are taking our community seriously, if you need our help or having any</tspan><tspan x="0" y="25.2" class="st1 st4 st5">quesion about anything please don&apos;t hesitate to contact</tspan><tspan x="0" y="50.4" class="st1 st4 st5">us or send us on our mail</tspan><tspan x="0" y="75.6" class="st1 st4 st5">email iconInfo@esportssummit-me.com</tspan><tspan x="0" y="126" class="st1 st4 st5">For buisness inquiries in contact us on</tspan><tspan x="0" y="151.2" class="st1 st4 st5">email iconbusiness@esportssummit-me.com</tspan></text>
<g>
	<g>
		<path class="st1" d="M1264,433.4l3-0.3c0.2,1,0.5,1.7,1.1,2.2c0.5,0.5,1.3,0.7,2.2,0.7c1,0,1.7-0.2,2.2-0.6
			c0.5-0.4,0.8-0.9,0.8-1.5c0-0.4-0.1-0.7-0.3-0.9c-0.2-0.3-0.6-0.5-1.1-0.7c-0.4-0.1-1.2-0.3-2.5-0.7c-1.6-0.4-2.8-0.9-3.5-1.5
			c-0.9-0.8-1.4-1.9-1.4-3.1c0-0.8,0.2-1.5,0.7-2.2c0.4-0.7,1.1-1.2,1.9-1.5c0.8-0.4,1.8-0.5,3-0.5c1.9,0,3.3,0.4,4.3,1.3
			c1,0.8,1.5,1.9,1.5,3.3l-3.1,0.1c-0.1-0.8-0.4-1.3-0.8-1.7c-0.4-0.3-1.1-0.5-1.9-0.5c-0.9,0-1.6,0.2-2.1,0.5
			c-0.3,0.2-0.5,0.5-0.5,0.9c0,0.4,0.2,0.7,0.5,0.9c0.4,0.3,1.3,0.7,2.8,1c1.5,0.4,2.6,0.7,3.3,1.1c0.7,0.4,1.3,0.9,1.7,1.5
			c0.4,0.7,0.6,1.5,0.6,2.4c0,0.9-0.2,1.7-0.7,2.4c-0.5,0.8-1.2,1.3-2.1,1.7c-0.9,0.4-2,0.6-3.3,0.6c-1.9,0-3.4-0.4-4.4-1.3
			C1264.8,436.4,1264.2,435.1,1264,433.4z"/>
		<path class="st1" d="M1278.9,438.3v-15.2h11.3v2.6h-8.2v3.4h7.6v2.6h-7.6v4.1h8.5v2.6H1278.9z"/>
		<path class="st1" d="M1293.1,438.3v-15.2h3l6.2,10.1v-10.1h2.8v15.2h-3.1l-6.1-9.9v9.9H1293.1z"/>
		<path class="st1" d="M1308.4,423.2h5.6c1.3,0,2.2,0.1,2.9,0.3c0.9,0.3,1.7,0.7,2.3,1.4c0.6,0.7,1.1,1.5,1.4,2.5
			c0.3,1,0.5,2.2,0.5,3.6c0,1.2-0.2,2.3-0.5,3.2c-0.4,1.1-0.9,2-1.6,2.7c-0.5,0.5-1.2,0.9-2.2,1.2c-0.7,0.2-1.6,0.3-2.7,0.3h-5.8
			V423.2z M1311.4,425.7v10.1h2.3c0.9,0,1.5,0,1.9-0.1c0.5-0.1,0.9-0.3,1.2-0.6c0.3-0.3,0.6-0.8,0.8-1.5c0.2-0.7,0.3-1.6,0.3-2.8
			c0-1.2-0.1-2.1-0.3-2.7c-0.2-0.6-0.5-1.1-0.9-1.5c-0.4-0.4-0.8-0.6-1.4-0.7c-0.4-0.1-1.3-0.1-2.5-0.1H1311.4z"/>
	</g>
</g>
<g>
	<g>
		<path class="st1" d="M1355.7,118.7l4.8,4.8v28.3l-4.8,4.8H839.4l-4.8-4.8v-28.3l4.8-4.8H1355.7 M1356.6,116.7h-518
			c-2.3,2.3-3.7,3.7-6,6v30c2.3,2.3,3.7,3.7,6,6h518c2.3-2.3,3.7-3.7,6-6v-30C1360.2,120.4,1358.9,119.1,1356.6,116.7L1356.6,116.7z
			"/>
	</g>
</g>
<g>
	<path class="st1" d="M1355.7,170.8l4.8,4.8v28.3l-4.8,4.8H839.4l-4.8-4.8v-28.3l4.8-4.8H1355.7 M1356.6,168.8h-518
		c-2.3,2.3-3.7,3.7-6,6v30c2.3,2.3,3.7,3.7,6,6h518c2.3-2.3,3.7-3.7,6-6v-30C1360.2,172.4,1358.9,171.1,1356.6,168.8L1356.6,168.8z"
		/>
</g>
<g>
	<path class="st1" d="M1355.7,222.8l4.8,4.8v166.3l-4.8,4.8H839.4l-4.8-4.8V227.6l4.8-4.8H1355.7 M1356.6,220.8h-518
		c-2.3,2.3-3.7,3.7-6,6v168c2.3,2.3,3.7,3.7,6,6h518c2.3-2.3,3.7-3.7,6-6v-168C1360.2,224.4,1358.9,223.1,1356.6,220.8L1356.6,220.8
		z"/>
</g>
<g>
	<path class="st1" d="M848.8,144.7v-10.7h8v1.8h-5.8v2.4h5.4v1.8h-5.4v2.9h6v1.8H848.8z"/>
	<path class="st1" d="M865.8,144.7h-2.1v-4c0-0.8,0-1.4-0.1-1.6c-0.1-0.2-0.2-0.4-0.4-0.6c-0.2-0.1-0.4-0.2-0.7-0.2
		c-0.4,0-0.7,0.1-1,0.3s-0.5,0.5-0.6,0.8c-0.1,0.3-0.2,0.9-0.2,1.8v3.5h-2.1v-7.8h1.9v1.1c0.7-0.9,1.5-1.3,2.6-1.3
		c0.5,0,0.9,0.1,1.2,0.2c0.4,0.2,0.7,0.4,0.9,0.6c0.2,0.3,0.3,0.5,0.4,0.9c0.1,0.3,0.1,0.8,0.1,1.4V144.7z"/>
	<path class="st1" d="M871.5,136.9v1.6h-1.4v3.1c0,0.6,0,1,0,1.1c0,0.1,0.1,0.2,0.2,0.3c0.1,0.1,0.2,0.1,0.3,0.1
		c0.2,0,0.5-0.1,0.8-0.2l0.2,1.6c-0.5,0.2-1,0.3-1.6,0.3c-0.4,0-0.7-0.1-1-0.2c-0.3-0.1-0.5-0.3-0.7-0.5c-0.1-0.2-0.2-0.5-0.3-0.8
		c0-0.2-0.1-0.7-0.1-1.5v-3.4h-0.9v-1.6h0.9v-1.5l2.1-1.2v2.7H871.5z"/>
	<path class="st1" d="M877.4,142.2l2.1,0.3c-0.3,0.8-0.7,1.3-1.2,1.7c-0.6,0.4-1.3,0.6-2.1,0.6c-1.4,0-2.4-0.4-3-1.3
		c-0.5-0.7-0.8-1.6-0.8-2.7c0-1.3,0.3-2.3,1-3c0.7-0.7,1.5-1.1,2.6-1.1c1.2,0,2.1,0.4,2.7,1.1s1,1.9,1,3.5h-5.2
		c0,0.6,0.2,1.1,0.5,1.4c0.3,0.3,0.7,0.5,1.2,0.5c0.3,0,0.6-0.1,0.8-0.3S877.3,142.6,877.4,142.2z M877.5,140.1c0-0.6-0.2-1-0.5-1.4
		s-0.6-0.5-1.1-0.5c-0.5,0-0.8,0.2-1.1,0.5s-0.4,0.8-0.4,1.3H877.5z"/>
	<path class="st1" d="M883.2,144.7h-2.1v-7.8h1.9v1.1c0.3-0.5,0.6-0.9,0.9-1c0.3-0.2,0.6-0.2,0.9-0.2c0.5,0,0.9,0.1,1.4,0.4
		l-0.6,1.8c-0.3-0.2-0.7-0.3-1-0.3c-0.3,0-0.5,0.1-0.7,0.2s-0.4,0.4-0.5,0.9c-0.1,0.4-0.2,1.3-0.2,2.6V144.7z"/>
	<path class="st1" d="M891.3,144.7v-10.7h8v1.8h-5.8v2.4h5.4v1.8h-5.4v2.9h6v1.8H891.3z"/>
	<path class="st1" d="M901,141.8v-2.1h4v2.1H901z"/>
	<path class="st1" d="M906.1,136.9h1.9v1.1c0.7-0.8,1.5-1.2,2.4-1.2c0.5,0,0.9,0.1,1.3,0.3c0.4,0.2,0.7,0.5,0.9,0.9
		c0.3-0.4,0.7-0.7,1.1-0.9c0.4-0.2,0.8-0.3,1.3-0.3c0.6,0,1.1,0.1,1.5,0.3c0.4,0.2,0.7,0.6,0.9,1c0.1,0.3,0.2,0.9,0.2,1.6v5h-2.1
		v-4.4c0-0.8-0.1-1.3-0.2-1.5c-0.2-0.3-0.5-0.4-0.9-0.4c-0.3,0-0.6,0.1-0.8,0.3s-0.4,0.4-0.5,0.8s-0.2,0.9-0.2,1.6v3.7h-2.1v-4.3
		c0-0.8,0-1.2-0.1-1.5c-0.1-0.2-0.2-0.4-0.3-0.5c-0.2-0.1-0.4-0.2-0.6-0.2c-0.3,0-0.6,0.1-0.9,0.3s-0.4,0.4-0.5,0.7
		c-0.1,0.3-0.2,0.9-0.2,1.6v3.8h-2.1V136.9z"/>
	<path class="st1" d="M921.1,139.3l-1.9-0.3c0.2-0.8,0.6-1.3,1.1-1.7s1.3-0.5,2.3-0.5c0.9,0,1.6,0.1,2.1,0.3s0.8,0.5,0.9,0.8
		c0.2,0.3,0.3,0.9,0.3,1.8l0,2.4c0,0.7,0,1.2,0.1,1.5c0.1,0.3,0.2,0.7,0.4,1h-2c-0.1-0.1-0.1-0.3-0.2-0.6c0-0.1-0.1-0.2-0.1-0.2
		c-0.4,0.3-0.7,0.6-1.1,0.8c-0.4,0.2-0.8,0.3-1.3,0.3c-0.8,0-1.4-0.2-1.9-0.7c-0.5-0.4-0.7-1-0.7-1.6c0-0.4,0.1-0.8,0.3-1.2
		c0.2-0.3,0.5-0.6,0.9-0.8c0.4-0.2,0.9-0.3,1.6-0.5c1-0.2,1.6-0.3,2-0.5v-0.2c0-0.4-0.1-0.7-0.3-0.8c-0.2-0.2-0.6-0.3-1.1-0.3
		c-0.4,0-0.7,0.1-0.9,0.2S921.3,138.9,921.1,139.3z M923.9,140.9c-0.3,0.1-0.7,0.2-1.3,0.3s-0.9,0.2-1.1,0.4
		c-0.3,0.2-0.4,0.4-0.4,0.7c0,0.3,0.1,0.5,0.3,0.7s0.5,0.3,0.8,0.3c0.4,0,0.7-0.1,1.1-0.4c0.3-0.2,0.4-0.4,0.5-0.7
		c0.1-0.2,0.1-0.5,0.1-1V140.9z"/>
	<path class="st1" d="M927.9,135.8v-1.9h2.1v1.9H927.9z M927.9,144.7v-7.8h2.1v7.8H927.9z"/>
	<path class="st1" d="M932.1,144.7v-10.7h2.1v10.7H932.1z"/>
</g>
<g>
	<path class="st1" d="M848.8,194.4v-10.7h8v1.8h-5.8v2.4h5.4v1.8h-5.4v2.9h6v1.8H848.8z"/>
	<path class="st1" d="M865.8,194.4h-2.1v-4c0-0.8,0-1.4-0.1-1.6c-0.1-0.2-0.2-0.4-0.4-0.6c-0.2-0.1-0.4-0.2-0.7-0.2
		c-0.4,0-0.7,0.1-1,0.3s-0.5,0.5-0.6,0.8c-0.1,0.3-0.2,0.9-0.2,1.8v3.5h-2.1v-7.8h1.9v1.1c0.7-0.9,1.5-1.3,2.6-1.3
		c0.5,0,0.9,0.1,1.2,0.2c0.4,0.2,0.7,0.4,0.9,0.6c0.2,0.3,0.3,0.5,0.4,0.9c0.1,0.3,0.1,0.8,0.1,1.4V194.4z"/>
	<path class="st1" d="M871.5,186.6v1.6h-1.4v3.1c0,0.6,0,1,0,1.1c0,0.1,0.1,0.2,0.2,0.3c0.1,0.1,0.2,0.1,0.3,0.1
		c0.2,0,0.5-0.1,0.8-0.2l0.2,1.6c-0.5,0.2-1,0.3-1.6,0.3c-0.4,0-0.7-0.1-1-0.2c-0.3-0.1-0.5-0.3-0.7-0.5c-0.1-0.2-0.2-0.5-0.3-0.8
		c0-0.2-0.1-0.7-0.1-1.5v-3.4h-0.9v-1.6h0.9V185l2.1-1.2v2.7H871.5z"/>
	<path class="st1" d="M877.4,191.9l2.1,0.3c-0.3,0.8-0.7,1.3-1.2,1.7c-0.6,0.4-1.3,0.6-2.1,0.6c-1.4,0-2.4-0.4-3-1.3
		c-0.5-0.7-0.8-1.6-0.8-2.7c0-1.3,0.3-2.3,1-3c0.7-0.7,1.5-1.1,2.6-1.1c1.2,0,2.1,0.4,2.7,1.1s1,1.9,1,3.5h-5.2
		c0,0.6,0.2,1.1,0.5,1.4c0.3,0.3,0.7,0.5,1.2,0.5c0.3,0,0.6-0.1,0.8-0.3S877.3,192.3,877.4,191.9z M877.5,189.8c0-0.6-0.2-1-0.5-1.4
		s-0.6-0.5-1.1-0.5c-0.5,0-0.8,0.2-1.1,0.5s-0.4,0.8-0.4,1.3H877.5z"/>
	<path class="st1" d="M883.2,194.4h-2.1v-7.8h1.9v1.1c0.3-0.5,0.6-0.9,0.9-1c0.3-0.2,0.6-0.2,0.9-0.2c0.5,0,0.9,0.1,1.4,0.4
		l-0.6,1.8c-0.3-0.2-0.7-0.3-1-0.3c-0.3,0-0.5,0.1-0.7,0.2s-0.4,0.4-0.5,0.9c-0.1,0.4-0.2,1.3-0.2,2.6V194.4z"/>
	<path class="st1" d="M890.7,190.9l2.1-0.2c0.1,0.7,0.4,1.2,0.8,1.6c0.4,0.3,0.9,0.5,1.6,0.5c0.7,0,1.2-0.1,1.6-0.4
		c0.4-0.3,0.5-0.6,0.5-1c0-0.3-0.1-0.5-0.2-0.6c-0.1-0.2-0.4-0.3-0.8-0.5c-0.3-0.1-0.8-0.2-1.7-0.5c-1.2-0.3-2-0.6-2.4-1.1
		c-0.7-0.6-1-1.3-1-2.2c0-0.5,0.2-1.1,0.5-1.5c0.3-0.5,0.8-0.8,1.3-1.1c0.6-0.2,1.3-0.4,2.1-0.4c1.3,0,2.4,0.3,3,0.9
		c0.7,0.6,1,1.4,1.1,2.4l-2.2,0.1c-0.1-0.6-0.3-0.9-0.6-1.2c-0.3-0.2-0.8-0.4-1.4-0.4c-0.6,0-1.1,0.1-1.5,0.4
		c-0.2,0.2-0.3,0.4-0.3,0.7c0,0.3,0.1,0.5,0.3,0.7c0.3,0.2,0.9,0.5,2,0.7s1.8,0.5,2.3,0.8c0.5,0.3,0.9,0.6,1.2,1.1
		c0.3,0.5,0.4,1,0.4,1.7c0,0.6-0.2,1.2-0.5,1.7s-0.8,0.9-1.5,1.2c-0.6,0.3-1.4,0.4-2.3,0.4c-1.4,0-2.4-0.3-3.1-0.9
		C891.3,193,890.9,192.1,890.7,190.9z"/>
	<path class="st1" d="M906.4,194.4v-1.2c-0.3,0.4-0.7,0.7-1.1,1c-0.5,0.2-0.9,0.4-1.5,0.4c-0.5,0-1-0.1-1.4-0.3s-0.7-0.6-0.9-1
		s-0.3-1-0.3-1.7v-4.9h2.1v3.6c0,1.1,0,1.8,0.1,2c0.1,0.2,0.2,0.4,0.4,0.6s0.5,0.2,0.8,0.2c0.4,0,0.7-0.1,0.9-0.3
		c0.3-0.2,0.5-0.4,0.6-0.7c0.1-0.3,0.2-1,0.2-2.1v-3.3h2.1v7.8H906.4z"/>
	<path class="st1" d="M910.3,194.4v-10.7h2.1v3.9c0.6-0.7,1.4-1.1,2.3-1.1c0.9,0,1.7,0.3,2.4,1c0.6,0.7,0.9,1.7,0.9,3
		c0,1.3-0.3,2.4-0.9,3.1c-0.6,0.7-1.4,1.1-2.3,1.1c-0.4,0-0.9-0.1-1.3-0.3c-0.4-0.2-0.8-0.6-1.1-1v1.1H910.3z M912.4,190.3
		c0,0.8,0.1,1.4,0.4,1.8c0.4,0.5,0.8,0.8,1.4,0.8c0.5,0,0.8-0.2,1.2-0.6c0.3-0.4,0.5-1,0.5-1.8c0-0.9-0.2-1.5-0.5-1.9
		c-0.3-0.4-0.7-0.6-1.2-0.6c-0.5,0-0.9,0.2-1.2,0.6C912.6,188.9,912.4,189.5,912.4,190.3z"/>
	<path class="st1" d="M921.6,186.6v7.5c0,1-0.1,1.7-0.2,2.1c-0.1,0.4-0.4,0.7-0.7,1c-0.4,0.2-0.8,0.3-1.4,0.3c-0.2,0-0.4,0-0.7-0.1
		c-0.2,0-0.5-0.1-0.8-0.2l0.4-1.8c0.1,0,0.2,0,0.3,0c0.1,0,0.2,0,0.2,0c0.2,0,0.4,0,0.5-0.1c0.1-0.1,0.2-0.2,0.3-0.3
		s0.1-0.5,0.1-1.1v-7.4H921.6z M919.6,185.5v-1.9h2.1v1.9H919.6z"/>
	<path class="st1" d="M928.3,191.9l2.1,0.3c-0.3,0.8-0.7,1.3-1.2,1.7c-0.6,0.4-1.3,0.6-2.1,0.6c-1.4,0-2.4-0.4-3-1.3
		c-0.5-0.7-0.8-1.6-0.8-2.7c0-1.3,0.3-2.3,1-3c0.7-0.7,1.5-1.1,2.6-1.1c1.2,0,2.1,0.4,2.7,1.1s1,1.9,1,3.5h-5.2
		c0,0.6,0.2,1.1,0.5,1.4c0.3,0.3,0.7,0.5,1.2,0.5c0.3,0,0.6-0.1,0.8-0.3S928.2,192.3,928.3,191.9z M928.4,189.8c0-0.6-0.2-1-0.5-1.4
		s-0.6-0.5-1.1-0.5c-0.5,0-0.8,0.2-1.1,0.5s-0.4,0.8-0.4,1.3H928.4z"/>
	<path class="st1" d="M938.9,188.9l-2,0.4c-0.1-0.4-0.2-0.7-0.5-0.9c-0.2-0.2-0.6-0.3-0.9-0.3c-0.5,0-0.9,0.2-1.2,0.5
		c-0.3,0.4-0.5,0.9-0.5,1.8c0,0.9,0.2,1.6,0.5,2c0.3,0.4,0.7,0.6,1.2,0.6c0.4,0,0.7-0.1,1-0.3c0.3-0.2,0.4-0.6,0.5-1.1l2,0.3
		c-0.2,0.9-0.6,1.6-1.2,2.1s-1.4,0.7-2.4,0.7c-1.1,0-2-0.4-2.7-1.1c-0.7-0.7-1-1.7-1-3c0-1.3,0.3-2.3,1-3s1.6-1.1,2.8-1.1
		c0.9,0,1.7,0.2,2.3,0.6C938.2,187.4,938.6,188,938.9,188.9z"/>
	<path class="st1" d="M944,186.6v1.6h-1.4v3.1c0,0.6,0,1,0,1.1c0,0.1,0.1,0.2,0.2,0.3c0.1,0.1,0.2,0.1,0.3,0.1
		c0.2,0,0.5-0.1,0.8-0.2l0.2,1.6c-0.5,0.2-1,0.3-1.6,0.3c-0.4,0-0.7-0.1-1-0.2c-0.3-0.1-0.5-0.3-0.7-0.5c-0.1-0.2-0.2-0.5-0.3-0.8
		c0-0.2-0.1-0.7-0.1-1.5v-3.4h-0.9v-1.6h0.9V185l2.1-1.2v2.7H944z"/>
</g>
<g>
	<path class="st1" d="M848.8,245.2v-10.7h8v1.8h-5.8v2.4h5.4v1.8h-5.4v2.9h6v1.8H848.8z"/>
	<path class="st1" d="M865.8,245.2h-2.1v-4c0-0.8,0-1.4-0.1-1.6c-0.1-0.2-0.2-0.4-0.4-0.6c-0.2-0.1-0.4-0.2-0.7-0.2
		c-0.4,0-0.7,0.1-1,0.3s-0.5,0.5-0.6,0.8c-0.1,0.3-0.2,0.9-0.2,1.8v3.5h-2.1v-7.8h1.9v1.1c0.7-0.9,1.5-1.3,2.6-1.3
		c0.5,0,0.9,0.1,1.2,0.2c0.4,0.2,0.7,0.4,0.9,0.6c0.2,0.3,0.3,0.5,0.4,0.9c0.1,0.3,0.1,0.8,0.1,1.4V245.2z"/>
	<path class="st1" d="M871.5,237.4v1.6h-1.4v3.1c0,0.6,0,1,0,1.1c0,0.1,0.1,0.2,0.2,0.3c0.1,0.1,0.2,0.1,0.3,0.1
		c0.2,0,0.5-0.1,0.8-0.2l0.2,1.6c-0.5,0.2-1,0.3-1.6,0.3c-0.4,0-0.7-0.1-1-0.2c-0.3-0.1-0.5-0.3-0.7-0.5c-0.1-0.2-0.2-0.5-0.3-0.8
		c0-0.2-0.1-0.7-0.1-1.5V239h-0.9v-1.6h0.9v-1.5l2.1-1.2v2.7H871.5z"/>
	<path class="st1" d="M877.4,242.7l2.1,0.3c-0.3,0.8-0.7,1.3-1.2,1.7c-0.6,0.4-1.3,0.6-2.1,0.6c-1.4,0-2.4-0.4-3-1.3
		c-0.5-0.7-0.8-1.6-0.8-2.7c0-1.3,0.3-2.3,1-3c0.7-0.7,1.5-1.1,2.6-1.1c1.2,0,2.1,0.4,2.7,1.1s1,1.9,1,3.5h-5.2
		c0,0.6,0.2,1.1,0.5,1.4c0.3,0.3,0.7,0.5,1.2,0.5c0.3,0,0.6-0.1,0.8-0.3S877.3,243.1,877.4,242.7z M877.5,240.6c0-0.6-0.2-1-0.5-1.4
		s-0.6-0.5-1.1-0.5c-0.5,0-0.8,0.2-1.1,0.5s-0.4,0.8-0.4,1.3H877.5z"/>
	<path class="st1" d="M883.2,245.2h-2.1v-7.8h1.9v1.1c0.3-0.5,0.6-0.9,0.9-1c0.3-0.2,0.6-0.2,0.9-0.2c0.5,0,0.9,0.1,1.4,0.4
		l-0.6,1.8c-0.3-0.2-0.7-0.3-1-0.3c-0.3,0-0.5,0.1-0.7,0.2s-0.4,0.4-0.5,0.9c-0.1,0.4-0.2,1.3-0.2,2.6V245.2z"/>
	<path class="st1" d="M891.3,245.2v-10.7h3.2l1.9,7.3l1.9-7.3h3.3v10.7h-2v-8.5l-2.1,8.5h-2.1l-2.1-8.5v8.5H891.3z"/>
	<path class="st1" d="M908.3,242.7l2.1,0.3c-0.3,0.8-0.7,1.3-1.2,1.7c-0.6,0.4-1.3,0.6-2.1,0.6c-1.4,0-2.4-0.4-3-1.3
		c-0.5-0.7-0.8-1.6-0.8-2.7c0-1.3,0.3-2.3,1-3c0.7-0.7,1.5-1.1,2.6-1.1c1.2,0,2.1,0.4,2.7,1.1s1,1.9,1,3.5h-5.2
		c0,0.6,0.2,1.1,0.5,1.4c0.3,0.3,0.7,0.5,1.2,0.5c0.3,0,0.6-0.1,0.8-0.3S908.2,243.1,908.3,242.7z M908.4,240.6c0-0.6-0.2-1-0.5-1.4
		s-0.6-0.5-1.1-0.5c-0.5,0-0.8,0.2-1.1,0.5s-0.4,0.8-0.4,1.3H908.4z"/>
	<path class="st1" d="M911.4,243l2.1-0.3c0.1,0.4,0.3,0.7,0.5,0.9s0.6,0.3,1.1,0.3c0.5,0,0.9-0.1,1.2-0.3c0.2-0.1,0.3-0.3,0.3-0.5
		c0-0.2,0-0.3-0.1-0.4c-0.1-0.1-0.3-0.2-0.7-0.3c-1.7-0.4-2.7-0.7-3.2-1c-0.6-0.4-0.9-1-0.9-1.8c0-0.7,0.3-1.2,0.8-1.7
		s1.4-0.7,2.5-0.7c1.1,0,1.9,0.2,2.4,0.5s0.9,0.9,1.1,1.5l-1.9,0.4c-0.1-0.3-0.2-0.5-0.5-0.7c-0.2-0.2-0.6-0.2-1-0.2
		c-0.5,0-0.9,0.1-1.2,0.2c-0.2,0.1-0.2,0.2-0.2,0.4c0,0.1,0.1,0.3,0.2,0.4c0.2,0.1,0.8,0.3,1.9,0.6c1.1,0.2,1.9,0.6,2.3,0.9
		c0.4,0.4,0.6,0.9,0.6,1.5c0,0.7-0.3,1.3-0.9,1.8s-1.5,0.8-2.6,0.8c-1.1,0-1.9-0.2-2.5-0.6C912,244.3,911.6,243.7,911.4,243z"/>
	<path class="st1" d="M919.7,243l2.1-0.3c0.1,0.4,0.3,0.7,0.5,0.9s0.6,0.3,1.1,0.3c0.5,0,0.9-0.1,1.2-0.3c0.2-0.1,0.3-0.3,0.3-0.5
		c0-0.2,0-0.3-0.1-0.4c-0.1-0.1-0.3-0.2-0.7-0.3c-1.7-0.4-2.7-0.7-3.2-1c-0.6-0.4-0.9-1-0.9-1.8c0-0.7,0.3-1.2,0.8-1.7
		s1.4-0.7,2.5-0.7c1.1,0,1.9,0.2,2.4,0.5s0.9,0.9,1.1,1.5l-1.9,0.4c-0.1-0.3-0.2-0.5-0.5-0.7c-0.2-0.2-0.6-0.2-1-0.2
		c-0.5,0-0.9,0.1-1.2,0.2c-0.2,0.1-0.2,0.2-0.2,0.4c0,0.1,0.1,0.3,0.2,0.4c0.2,0.1,0.8,0.3,1.9,0.6c1.1,0.2,1.9,0.6,2.3,0.9
		c0.4,0.4,0.6,0.9,0.6,1.5c0,0.7-0.3,1.3-0.9,1.8s-1.5,0.8-2.6,0.8c-1.1,0-1.9-0.2-2.5-0.6C920.3,244.3,919.9,243.7,919.7,243z"/>
	<path class="st1" d="M930.3,239.8l-1.9-0.3c0.2-0.8,0.6-1.3,1.1-1.7s1.3-0.5,2.3-0.5c0.9,0,1.6,0.1,2.1,0.3s0.8,0.5,0.9,0.8
		c0.2,0.3,0.3,0.9,0.3,1.8l0,2.4c0,0.7,0,1.2,0.1,1.5c0.1,0.3,0.2,0.7,0.4,1h-2c-0.1-0.1-0.1-0.3-0.2-0.6c0-0.1-0.1-0.2-0.1-0.2
		c-0.4,0.3-0.7,0.6-1.1,0.8c-0.4,0.2-0.8,0.3-1.3,0.3c-0.8,0-1.4-0.2-1.9-0.7c-0.5-0.4-0.7-1-0.7-1.6c0-0.4,0.1-0.8,0.3-1.2
		c0.2-0.3,0.5-0.6,0.9-0.8c0.4-0.2,0.9-0.3,1.6-0.5c1-0.2,1.6-0.3,2-0.5v-0.2c0-0.4-0.1-0.7-0.3-0.8c-0.2-0.2-0.6-0.3-1.1-0.3
		c-0.4,0-0.7,0.1-0.9,0.2S930.5,239.4,930.3,239.8z M933.1,241.4c-0.3,0.1-0.7,0.2-1.3,0.3s-0.9,0.2-1.1,0.4
		c-0.3,0.2-0.4,0.4-0.4,0.7c0,0.3,0.1,0.5,0.3,0.7s0.5,0.3,0.8,0.3c0.4,0,0.7-0.1,1.1-0.4c0.3-0.2,0.4-0.4,0.5-0.7
		c0.1-0.2,0.1-0.5,0.1-1V241.4z"/>
	<path class="st1" d="M936.9,245.7l2.4,0.3c0,0.3,0.1,0.5,0.3,0.6c0.2,0.1,0.5,0.2,0.9,0.2c0.5,0,0.9-0.1,1.2-0.2
		c0.2-0.1,0.3-0.3,0.4-0.5c0.1-0.2,0.1-0.5,0.1-0.9v-1.1c-0.6,0.8-1.4,1.3-2.3,1.3c-1,0-1.9-0.4-2.5-1.3c-0.5-0.7-0.7-1.6-0.7-2.6
		c0-1.3,0.3-2.3,0.9-3c0.6-0.7,1.4-1,2.3-1c1,0,1.8,0.4,2.4,1.3v-1.1h1.9v7c0,0.9-0.1,1.6-0.2,2.1c-0.2,0.5-0.4,0.8-0.6,1.1
		s-0.6,0.5-1.1,0.6c-0.5,0.1-1,0.2-1.7,0.2c-1.3,0-2.3-0.2-2.8-0.7c-0.6-0.5-0.8-1-0.8-1.7C936.9,245.9,936.9,245.8,936.9,245.7z
		 M938.8,241.1c0,0.8,0.2,1.4,0.5,1.8c0.3,0.4,0.7,0.6,1.2,0.6c0.5,0,0.9-0.2,1.3-0.6c0.3-0.4,0.5-1,0.5-1.7c0-0.8-0.2-1.4-0.5-1.8
		s-0.8-0.6-1.3-0.6c-0.5,0-0.9,0.2-1.2,0.6C938.9,239.8,938.8,240.3,938.8,241.1z"/>
	<path class="st1" d="M950.8,242.7l2.1,0.3c-0.3,0.8-0.7,1.3-1.2,1.7c-0.6,0.4-1.3,0.6-2.1,0.6c-1.4,0-2.4-0.4-3-1.3
		c-0.5-0.7-0.8-1.6-0.8-2.7c0-1.3,0.3-2.3,1-3c0.7-0.7,1.5-1.1,2.6-1.1c1.2,0,2.1,0.4,2.7,1.1s1,1.9,1,3.5h-5.2
		c0,0.6,0.2,1.1,0.5,1.4c0.3,0.3,0.7,0.5,1.2,0.5c0.3,0,0.6-0.1,0.8-0.3S950.7,243.1,950.8,242.7z M950.9,240.6c0-0.6-0.2-1-0.5-1.4
		s-0.6-0.5-1.1-0.5c-0.5,0-0.8,0.2-1.1,0.5s-0.4,0.8-0.4,1.3H950.9z"/>
</g>
<g>
	<path class="st1" d="M362.7,0v66.7H1400V480c-7.8,7.8-12.2,12.2-20,20H20c-7.8-7.8-12.2-12.2-20-20V20C7.8,12.2,12.2,7.8,20,0
		H362.7 M364.7-2h-2H20h-0.8l-0.6,0.6l-7.3,7.3L-1.4,18.6L-2,19.2V20v460v0.8l0.6,0.6l7.3,7.3l12.7,12.7l0.6,0.6H20h1360h0.8
		l0.6-0.6l12.7-12.7l7.3-7.3l0.6-0.6V480V66.7v-2h-2H364.7V0V-2L364.7-2z"/>
</g>
<g>
	<path class="st1" d="M1355.7,412.8l4.8,4.8v26.3l-4.8,4.8h-126.3l-1.6-1.6l-3.2-3.2v-26.3l3.2-3.2l1.6-1.6H1355.7 M1356.6,410.8
		h-128c-2.3,2.3-3.7,3.7-6,6v28c2.3,2.3,3.7,3.7,6,6h128c2.3-2.3,3.7-3.7,6-6v-28C1360.2,414.4,1358.9,413.1,1356.6,410.8
		L1356.6,410.8z"/>
</g>
</svg>
